<svg width="126" height="42" viewBox="0 0 126 42" fill="none" xmlns="http://www.w3.org/2000/svg">
<path d="M54.192 13.728H60.208V32H64.784V13.728H70.832V9.6H54.192V13.728ZM74.7735 26.24V17.28H70.4855V26.688C70.4855 28.4373 70.9122 29.8133 71.7655 30.816C72.6402 31.8187 73.9522 32.32 75.7015 32.32C76.7468 32.32 77.6322 32.1067 78.3575 31.68C79.0828 31.232 79.6802 30.592 80.1495 29.76V32H84.2775V17.28H80.1495V26.24C80.1495 26.8587 80.0215 27.392 79.7655 27.84C79.5308 28.288 79.1895 28.64 78.7415 28.896C78.3148 29.1307 77.8028 29.248 77.2055 29.248C76.3522 29.248 75.7335 28.992 75.3495 28.48C74.9655 27.9467 74.7735 27.2 74.7735 26.24ZM92.4245 17.28H88.3605V32H92.4245V17.28ZM96.7445 21.6L98.6325 18.08C98.3338 17.696 97.9392 17.408 97.4485 17.216C96.9792 17.024 96.4778 16.928 95.9445 16.928C95.1765 16.928 94.4298 17.2053 93.7045 17.76C92.9792 18.2933 92.3925 19.0187 91.9445 19.936C91.4965 20.832 91.2725 21.8667 91.2725 23.04L92.4245 24.192C92.4245 23.488 92.5098 22.8907 92.6805 22.4C92.8725 21.888 93.1498 21.4933 93.5125 21.216C93.8752 20.9387 94.3125 20.8 94.8245 20.8C95.2512 20.8 95.6032 20.8747 95.8805 21.024C96.1792 21.152 96.4672 21.344 96.7445 21.6ZM100.637 11.584C100.637 12.2453 100.883 12.8 101.373 13.248C101.864 13.696 102.451 13.92 103.133 13.92C103.816 13.92 104.392 13.696 104.861 13.248C105.352 12.8 105.597 12.2453 105.597 11.584C105.597 10.9013 105.352 10.3467 104.861 9.92C104.392 9.472 103.816 9.248 103.133 9.248C102.451 9.248 101.864 9.472 101.373 9.92C100.883 10.3467 100.637 10.9013 100.637 11.584ZM101.085 17.28V32H105.117V17.28H101.085ZM108.525 24.64C108.525 26.1547 108.877 27.4987 109.581 28.672C110.306 29.824 111.277 30.72 112.493 31.36C113.73 32 115.127 32.32 116.685 32.32C118.242 32.32 119.629 32 120.845 31.36C122.082 30.72 123.053 29.824 123.757 28.672C124.482 27.4987 124.845 26.1547 124.845 24.64C124.845 23.104 124.482 21.76 123.757 20.608C123.053 19.456 122.082 18.56 120.845 17.92C119.629 17.28 118.242 16.96 116.685 16.96C115.127 16.96 113.73 17.28 112.493 17.92C111.277 18.56 110.306 19.456 109.581 20.608C108.877 21.76 108.525 23.104 108.525 24.64ZM112.749 24.64C112.749 23.808 112.919 23.072 113.261 22.432C113.623 21.792 114.103 21.3013 114.701 20.96C115.298 20.6187 115.959 20.448 116.685 20.448C117.41 20.448 118.071 20.6187 118.669 20.96C119.266 21.3013 119.735 21.792 120.077 22.432C120.439 23.072 120.621 23.808 120.621 24.64C120.621 25.472 120.439 26.208 120.077 26.848C119.735 27.4667 119.266 27.9573 118.669 28.32C118.071 28.6613 117.41 28.832 116.685 28.832C115.959 28.832 115.298 28.6613 114.701 28.32C114.103 27.9573 113.623 27.4667 113.261 26.848C112.919 26.208 112.749 25.472 112.749 24.64Z" fill="white"/>
<g clip-path="url(#clip0_850_13)">
<path fill-rule="evenodd" clip-rule="evenodd" d="M36.7463 6.47763C30.7297 0.292443 21.5001 -1.67724 13.4207 1.49876C5.34135 4.67476 0.031223 12.3619 0.000139742 20.9244C-0.031234 29.4869 5.22271 37.2114 13.2785 40.4451C21.3348 43.6779 30.5782 41.7732 36.6397 35.6307C28.6975 42.3986 16.7509 41.8218 9.52028 34.3205C2.29002 26.8187 2.33307 15.0461 9.61771 7.59657C16.9033 0.14622 28.8535 -0.346485 36.7463 6.47763Z" fill="#28BA7B"/>
<path fill-rule="evenodd" clip-rule="evenodd" d="M39.7294 32.1701C35.9401 37.0305 30.038 39.8396 23.8136 39.747C20.2303 39.6937 16.7833 38.6807 13.8087 36.8819C18.6299 34.1863 18.9305 35.1793 23.6681 37.3872C23.6681 37.3872 24.2449 37.3349 25.3988 37.2296C20.6606 34.7717 17.9667 32.692 13.2361 36.5227C12.5873 36.0992 11.963 35.637 11.3664 35.1393C13.6494 32.2883 16.1401 31.0712 18.8385 31.4888C21.9263 31.9666 27.2117 35.1402 31.2857 35.9447C31.2857 35.9447 31.7474 35.7088 32.6709 35.237C27.7344 34.7875 22.9261 31.1853 18.9097 30.5667C15.177 29.9913 12.4609 31.3397 10.7616 34.6116C9.79926 33.7376 8.91911 32.7637 8.13965 31.698C12.8338 26.5177 20.3268 26.465 30.6198 31.5407C34.4082 32.9038 37.4446 33.1141 39.7294 32.1701ZM29.4483 36.4427C28.6315 36.3983 27.0422 36.0141 24.6794 35.2894C26.0646 36.2183 27.1839 36.7336 28.0359 36.8363C28.5808 36.9013 29.0509 36.7705 29.4483 36.4427ZM35.707 33.2709C33.2454 34.2799 29.96 33.6851 25.8522 31.488C28.192 33.3674 31.0909 34.4449 34.1094 34.5558C34.1094 34.5557 34.6422 34.1272 35.707 33.2709Z" fill="#28BA7B"/>
<path fill-rule="evenodd" clip-rule="evenodd" d="M37.0705 30.8537C34.2639 29.7112 29.7568 29.4862 23.5471 30.1801C22.9629 30.3252 22.3959 30.4584 21.8454 30.5802L21.0618 29.5554C22.0301 29.3171 23.0502 29.0427 24.1225 28.7332C24.5869 27.3784 25.6939 26.7288 27.4443 26.7839C27.9407 26.3829 28.5862 26.2094 29.2198 26.3053C29.8543 26.4012 30.417 26.758 30.7667 27.2875C33.5404 23.7247 33.8969 18.3482 31.8375 11.1572C31.5641 11.3199 31.4496 11.6509 31.5656 11.9435C31.5243 12.7875 31.4768 13.6311 31.4218 14.4742C31.3319 14.1041 31.3157 13.7197 31.3743 13.3428C31.2031 13.9723 31.143 14.6268 31.198 15.2763C31.1005 14.9936 31.0626 14.6936 31.0871 14.3959C30.944 14.8536 30.9057 15.3363 30.9753 15.8107C29.9646 13.9237 30.0441 11.6517 31.1827 9.83645C30.5821 10.1882 30.074 10.6727 29.6968 11.2513C29.7129 10.7962 29.8943 10.3609 30.2075 10.0256C29.464 10.4442 28.842 11.0454 28.4033 11.7699C28.3212 11.2672 28.516 10.7595 28.9141 10.4341C28.0007 10.7853 27.3128 11.5448 27.0614 12.4779C27.0842 12.086 27.1654 11.699 27.3011 11.3307C26.7037 11.8066 26.2368 12.4229 25.9431 13.1224C26.4556 10.8812 28.3396 9.19689 30.6558 8.90919C30.1866 8.46063 29.4487 8.43381 28.9463 8.84652C29.0309 8.54973 29.2401 8.30383 29.5213 8.17025C28.6956 8.26025 27.9143 8.58238 27.2688 9.09744C27.4493 8.70384 27.767 8.38618 28.1633 8.20118C27.2586 8.31469 26.3911 8.62652 25.6236 9.11334C25.8074 8.80157 26.0581 8.53389 26.3591 8.32705C25.6947 8.4906 25.1188 8.89507 24.7452 9.45954C25.1899 7.98434 26.4302 6.87449 27.9643 6.58096C29.4986 6.2868 31.0709 6.85716 32.0452 8.06028C32.3754 6.87632 33.4346 6.03004 34.6805 5.95501C35.9259 5.88061 37.0815 6.59451 37.5559 7.73026C37.2238 7.10723 36.5147 6.77453 35.815 6.91309C36.0219 6.99955 36.1794 7.17225 36.2463 7.38401C35.6641 7.01042 34.928 6.95718 34.2968 7.24225C34.4985 7.214 34.7026 7.259 34.8721 7.36817C34.3984 7.37818 33.9334 7.49672 33.515 7.71437C33.7395 7.66936 33.9732 7.70848 34.1698 7.82439C33.6734 7.86677 33.2457 8.18386 33.0667 8.64242C34.3826 8.02854 35.9456 8.26472 37.0129 9.23926C36.8106 9.19014 36.5969 9.22336 36.4217 9.33367C37.0858 9.4596 37.6643 9.8564 38.0143 10.425C38.3649 10.9945 38.453 11.6834 38.2582 12.3211C38.055 11.7508 37.6085 11.2972 37.0368 11.0786C37.3019 11.3139 37.4205 11.6699 37.3485 12.0143C37.0434 11.3172 36.5132 10.7395 35.8387 10.3709C36.021 10.6068 36.1064 10.9021 36.0787 11.1963C35.8736 10.6709 35.4397 10.2641 34.8958 10.0882C34.9797 10.2324 34.9917 10.4059 34.928 10.5601C34.8213 10.2324 34.5858 9.96059 34.2732 9.80557C34.3883 9.93057 34.4546 10.0923 34.457 10.2618C34.2401 9.90467 33.8142 9.72642 33.4032 9.82146C34.8375 11.0787 35.3718 13.0592 34.7604 14.8518C34.8943 13.9832 34.6501 13.0993 34.0895 12.4153C34.1707 12.643 34.0928 12.8974 33.8979 13.0442C33.9676 12.6848 33.8929 12.313 33.6905 12.0062C33.7742 12.1929 33.7219 12.4112 33.5626 12.5406C33.5972 12.2012 33.5067 11.8608 33.3067 11.5817C33.3854 11.7584 33.3336 11.9653 33.1794 12.0852C33.1779 11.6367 32.9508 11.2181 32.5722 10.9687C34.0683 14.4132 34.6436 18.7999 34.2978 24.1274C35.2135 21.9944 37.0799 19.5339 39.8958 16.7465C39.6477 16.8497 39.4206 16.9956 39.2248 17.1783C39.1842 17.5118 38.998 17.8104 38.7141 17.9963C38.8886 17.791 38.9481 17.5142 38.8734 17.2573C38.7879 17.5942 38.5431 17.9454 38.1388 18.3104C38.3414 18.0545 38.4481 17.7918 38.4583 17.5241C38.1609 17.7903 37.9161 18.1572 37.7236 18.6249C37.7924 18.4222 37.8085 18.2063 37.7712 17.9962C37.6797 18.3304 37.4908 18.6307 37.2282 18.8608C37.3104 17.31 38.4813 16.0251 40.0399 15.7798C39.7831 15.5298 39.4224 15.413 39.0659 15.4648C38.6481 15.6515 38.1974 15.7525 37.7399 15.7639C38.0755 15.7115 38.3845 15.5515 38.6185 15.308C37.8899 15.3497 37.1825 15.5656 36.5572 15.9365C36.7096 15.5789 37.0231 15.3112 37.4045 15.2135C36.7563 15.3297 36.1371 15.5697 35.583 15.9206C35.7737 15.1685 36.4736 14.6508 37.2605 14.679C37.0172 14.5985 36.7554 14.5934 36.5097 14.6634C37.0877 14.2663 37.822 14.1613 38.4906 14.3799C38.3591 14.1948 38.1448 14.0839 37.9153 14.0813C38.998 13.8045 40.14 14.234 40.7583 15.1503C40.721 14.404 40.4027 13.6977 39.8638 13.17C39.8856 13.3268 39.8856 13.5209 39.8638 13.7512C39.8638 13.7512 39.747 13.5 39.5121 12.9964C39.5121 12.9964 39.4598 13.1114 39.3528 13.3426C39.3528 13.3426 39.3208 13.2068 39.2571 12.934C38.8919 12.7705 38.4813 12.7322 38.0916 12.8237C38.8632 12.246 39.9221 12.2128 40.7305 12.7405C41.5378 13.2682 41.9182 14.2422 41.6767 15.1661C42.8205 14.7498 44.1056 15.0075 44.9926 15.8314C45.8796 16.6545 46.2168 17.9011 45.8617 19.0492C45.8583 18.332 45.5721 17.6449 45.0637 17.1313C45.1585 17.2957 45.1468 17.499 45.0314 17.6499C44.9026 17.1713 44.5156 16.8019 44.0252 16.691C44.136 16.8422 44.1453 17.0422 44.0488 17.2022C43.9176 16.7478 43.5641 16.3877 43.1068 16.2433C43.2108 16.3627 43.2753 16.511 43.2906 16.6678C43.0025 16.3242 42.5297 16.19 42.1002 16.3301C43.6761 17.3314 44.3494 19.2643 43.7293 21.0071C43.7676 20.4059 43.6914 19.8037 43.5057 19.2302C43.4785 19.4861 43.3939 19.7329 43.2583 19.9532C43.3575 19.532 43.3548 19.0925 43.2499 18.6724C43.2619 18.8334 43.1862 18.9893 43.0509 19.081C43.0584 18.5621 42.9678 18.1686 42.7789 17.9018C42.8118 18.2189 42.7323 18.528 42.5398 18.8292C42.5697 18.0395 42.3781 17.4941 41.9648 17.1949C41.9648 17.1949 41.9648 17.4358 41.9648 17.9177C41.9648 17.9177 41.7945 17.5767 41.4532 16.8955C41.4505 18.4207 40.7159 19.8538 39.4723 20.7636C39.4723 20.7636 39.5739 20.4383 39.7765 19.7888C39.7765 19.7888 39.6597 19.8723 39.4248 20.0397C39.4248 20.0397 39.6215 19.6838 40.0153 18.9707C40.0153 18.9707 39.9307 18.9866 39.7604 19.0184C39.7604 19.0184 39.9678 18.7825 40.3829 18.3104C40.3829 18.3104 40.2873 18.3312 40.0957 18.3739C40.0957 18.3739 40.2287 18.2112 40.495 17.8862C40.3534 17.9735 40.4331 17.7903 40.7347 17.3358C40.7347 17.3358 40.665 17.3832 40.527 17.4776C40.527 17.4776 40.6118 17.2472 40.7828 16.7863C36.703 20.5768 34.7868 24.5908 35.0324 28.8284C36.8674 29.2326 38.527 30.1833 39.7882 31.5441C38.9411 31.259 38.0347 31.0288 37.0705 30.8537ZM11.8507 31.2341C10.9805 31.0205 10.279 30.6896 9.74707 30.2425C10.4867 30.5343 11.4093 30.701 12.5139 30.7428L11.8507 31.2341Z" fill="#28BA7B"/>
<path fill-rule="evenodd" clip-rule="evenodd" d="M14.3213 9.39068C14.5282 8.86029 14.9779 8.45673 15.5329 8.30262C16.0885 8.14759 16.6859 8.25939 17.1449 8.60444C17.0959 7.8723 16.4782 7.30371 15.7337 7.30371C14.9881 7.30371 14.3707 7.8723 14.3213 8.60444C13.9672 7.83084 13.1862 7.33282 12.3238 7.33282C11.4621 7.33282 10.6794 7.83084 10.3262 8.60444C11.657 7.77137 13.4182 8.11814 14.3213 9.39068Z" fill="#28BA7B"/>
<path fill-rule="evenodd" clip-rule="evenodd" d="M12.185 15.1782C12.3341 14.7973 12.656 14.5078 13.0544 14.397C13.4534 14.2861 13.8819 14.3661 14.2107 14.6138C14.176 14.0893 13.7328 13.6807 13.1981 13.6807C12.6638 13.6807 12.2205 14.0893 12.185 14.6138C11.931 14.0587 11.37 13.7016 10.7517 13.7016C10.1333 13.7016 9.57237 14.0587 9.31836 14.6138C10.2729 14.0169 11.5371 14.2655 12.185 15.1782Z" fill="#28BA7B"/>
<path fill-rule="evenodd" clip-rule="evenodd" d="M20.8168 15.5966C20.966 15.2163 21.2878 14.9262 21.6871 14.8154C22.0852 14.7045 22.5137 14.7851 22.8425 15.0322C22.8078 14.5077 22.3646 14.0991 21.8303 14.0991C21.2956 14.0991 20.8524 14.5077 20.8168 15.0322C20.5637 14.4777 20.0019 14.1206 19.3835 14.1206C18.7652 14.1206 18.2042 14.4777 17.9502 15.0322C18.9056 14.435 20.1689 14.6836 20.8168 15.5966Z" fill="#28BA7B"/>
</g>
<defs>
<clipPath id="clip0_850_13">
<rect width="46" height="42" fill="white"/>
</clipPath>
</defs>
</svg>
